<svg shape-rendering="crispEdges" viewBox="0 -.5 288 64" xmlns="http://www.w3.org/2000/svg"><path d="m135 13h4m10 0h4m-19 1h1m4 0h1m8 0h1m4 0h1m-21 1h1m6 0h1m6 0h1m6 0h1m-22 1h1m6 0h8m6 0h1m-22 1h1m20 0h1m-22 1h1m20 0h1m-29 1h1m4 0h2m22 0h2m4 0h1m-37 1h1m1 0h1m2 0h1m26 0h1m2 0h1m1 0h1m-39 1h1m3 0h2m28 0h2m3 0h1m-41 1h1m40 0h1m-43 1h1m42 0h1m-44 1h1m42 0h1m-43 1h1m40 0h1m-42 1h1m40 0h1m-42 1h1m40 0h1m-42 1h1m40 0h1m-43 1h1m42 0h1m-44 1h1m11 0h4m12 0h4m11 0h1m-44 1h1m9 0h2m4 0h1m10 0h1m4 0h2m9 0h1m-45 1h1m9 0h1m7 0h1m8 0h1m7 0h1m9 0h1m-46 1h1m8 0h1m9 0h1m6 0h1m9 0h1m8 0h1m-46 1h1m7 0h1m10 0h1m6 0h1m10 0h1m7 0h1m-45 1h1m6 0h1m10 0h1m6 0h1m10 0h1m6 0h1m-44 1h1m5 0h1m11 0h1m6 0h1m11 0h1m5 0h1m-44 1h1m5 0h1m11 0h1m6 0h1m11 0h1m5 0h1m-44 1h1m6 0h1m5 0h6m6 0h6m5 0h1m6 0h1m-43 1h1m5 0h1m4 0h1m18 0h1m4 0h1m5 0h1m-42 1h1m6 0h1m2 0h1m20 0h1m2 0h1m6 0h1m-42 1h1m7 0h3m9 0h2m9 0h3m7 0h1m-42 1h1m18 0h1m2 0h1m18 0h1m-43 1h1m18 0h1m4 0h1m18 0h1m-44 1h1m18 0h1m4 0h1m18 0h1m-44 1h1m18 0h1m4 0h1m18 0h1m-43 1h1m17 0h6m17 0h1m-41 1h1m38 0h1m-39 1h1m36 0h1m-37 1h1m34 0h1m-35 1h2m30 0h2m-32 1h30m-28 8h1m1 0h1m1 0h1m1 0h1m1 0h1m1 0h1m1 0h1m1 0h1m1 0h1m1 0h1m1 0h1m1 0h1m1 0h1m1 0h1" stroke="#363641"/></svg>